<svg xmlns="http://www.w3.org/2000/svg" width="800" height="600" viewBox="0 0 800 600">
  <defs>
    <linearGradient id="bg" x1="0" y1="0" x2="1" y2="1">
      <stop offset="0%" stop-color="#0d1b2a"/>
      <stop offset="100%" stop-color="#1b263b"/>
    </linearGradient>
  </defs>
  <rect width="800" height="600" fill="url(#bg)"/>
  <g stroke="#e9c46a" stroke-width="6" fill="none" stroke-linecap="round">
    <line x1="150" y1="470" x2="220" y2="150"/>
    <line x1="220" y1="150" x2="360" y2="280"/>
    <line x1="360" y1="280" x2="420" y2="120"/>
    <line x1="420" y1="120" x2="520" y2="300"/>
    <line x1="520" y1="300" x2="560" y2="180"/>
    <line x1="560" y1="180" x2="660" y2="330"/>
    <line x1="660" y1="330" x2="700" y2="470"/>
  </g>
  <g fill="#e9c46a">
    <circle cx="220" cy="150" r="30"/>
    <circle cx="360" cy="280" r="30"/>
    <circle cx="420" cy="120" r="24"/>
    <circle cx="520" cy="300" r="30"/>
    <circle cx="560" cy="180" r="24"/>
    <circle cx="660" cy="330" r="30"/>
  </g>
  <path d="M150 470 l0 -60 Q150 380 200 380 l0 60 Z" fill="#e9c46a" opacity="0.85"/>
  <rect x="700" y="380" width="52" height="90" fill="#e9c46a" opacity="0.85"/>
  <text x="400" y="545" text-anchor="middle" fill="#ffffff" font-family="Arial, sans-serif" font-size="42" font-weight="bold">TREES &amp; GRAPHS</text>
</svg>