<svg xmlns="http://www.w3.org/2000/svg" width="800" height="600" viewBox="0 0 800 600">
  <defs>
    <linearGradient id="bg" x1="0" y1="0" x2="1" y2="1">
      <stop offset="0%" stop-color="#1e1b4b"/>
      <stop offset="50%" stop-color="#312e81"/>
      <stop offset="100%" stop-color="#4c1d95"/>
    </linearGradient>
  </defs>
  <rect width="800" height="600" fill="url(#bg)"/>
  <g transform="translate(400,255)">
    <rect x="-180" y="-62" width="360" height="124" rx="22" fill="#ffffff" opacity="0.10"/>
    <circle cx="0" cy="0" r="46" fill="#f8fafc"/>
    <circle cx="-82" cy="-70" r="22" fill="#c4b5fd"/>
    <circle cx="82" cy="-70" r="22" fill="#67e8f9"/>
    <circle cx="-82" cy="70" r="22" fill="#f9a8d4"/>
    <circle cx="82" cy="70" r="22" fill="#bef264"/>
    <path d="M-82-70 L-34-30 M82-70 L34-30 M-82 70 L-34 30 M82 70 L34 30" stroke="#ffffff" stroke-width="7" stroke-linecap="round" fill="none"/>
    <path d="M0-22 A22 22 0 1 1 22 0" stroke="#7c3aed" stroke-width="9" stroke-linecap="round" fill="none"/>
  </g>
  <rect x="40" y="468" width="720" height="96" rx="18" fill="#000000" opacity="0.30"/>
  <text x="400" y="530" text-anchor="middle" fill="#ffffff" font-family="Arial, sans-serif" font-size="42" font-weight="bold">
    OPERATING SYSTEMS
  </text>
</svg>
